<svg width="238" height="35" viewBox="0 0 238 35" fill="none" xmlns="http://www.w3.org/2000/svg">
<path d="M117.791 28.6869C120.302 26.9342 122.022 24.1915 122.022 20.9566C122.022 15.5687 117.261 11.4736 111.808 11.4736H100.838V34.9998H106.523V30.472H112.074L115.244 34.9998H122.216L117.791 28.6869ZM111.744 24.8839H106.523V17.0509H111.581C114.227 17.0509 116.342 18.901 116.342 20.9512C116.336 23.0339 114.389 24.8839 111.744 24.8839Z" fill="#021751"/>
<path opacity="0.75" d="M169.609 11.4683H176.749L181.97 18.544L187.222 11.4683H194.325L185.535 23.2016L194.39 34.9999H187.255L181.97 27.8592L176.679 34.9999H169.544L178.399 23.2016L169.609 11.4683Z" fill="#021751"/>
<path d="M148.625 11.4683H167.824V17.0563H154.305V20.394H163.956V25.9118H154.305V29.3793H167.824V34.9999H148.625V11.4683Z" fill="#021751"/>
<path d="M123.839 11.4683H145.58V17.0888H137.585V34.9999H131.905V17.0888H123.839V11.4683Z" fill="#021751"/>
<path d="M78.0684 11.4683H97.2669V17.0563H83.7538V20.394H93.3991V25.9118H83.7538V29.3793H97.2669V34.9999H78.0684V11.4683Z" fill="#021751"/>
<path d="M56.4524 11.4683L63.0628 27.6266L69.6733 11.4683H75.8835L66.1679 34.9999H59.9578L50.2422 11.4683H56.4524Z" fill="#021751"/>
<path d="M38.607 11.4683H28.4316V34.9945H38.607C45.0823 34.9945 50.335 29.7093 50.335 23.2665C50.3404 16.7588 45.0877 11.4683 38.607 11.4683ZM38.8721 29.3793H34.1117V17.0888H38.8721C42.1124 17.0888 44.6225 19.8639 44.6225 23.2665C44.6225 26.6042 42.1124 29.3793 38.8721 29.3793Z" fill="#021751"/>
<path d="M15.7722 11.4683H10.4871L0.0791016 34.9945H6.28928L7.31169 32.5493H18.9098L20.035 34.9945H26.2452L15.7722 11.4683ZM9.59452 27.1668L13.1324 18.4412L16.7027 27.1668H9.59452Z" fill="#021751"/>
<g opacity="0.75">
<path opacity="0.75" d="M225.421 18.8577L209.165 34.9944H215.327L228.753 21.9249L232.156 25.0516L235.78 12.5015L222.013 15.731L225.421 18.8577Z" fill="#021751"/>
</g>
<path opacity="0.75" d="M212.341 13.2751L196.588 16.9699L200.483 20.551L198.303 22.585V29.6391L204.297 24.0618L208.191 27.6429L212.341 13.2751Z" fill="#021751"/>
<path d="M233.13 11.4899L233.963 11.2952L237.225 0L212.735 5.73955L218.794 11.306L212.276 17.738L208.77 30.0123L204.448 26.0525L198.303 31.7325V34.9945H205.838L222.862 18.4899L218.886 14.833L233.13 11.4899Z" fill="#021751"/>
</svg>
