<svg width="238" height="35" viewBox="0 0 238 35" fill="none" xmlns="http://www.w3.org/2000/svg">
<path d="M117.712 28.6869C120.222 26.9342 121.943 24.1916 121.943 20.9566C121.943 15.5687 117.182 11.4736 111.729 11.4736H100.759V34.9999H106.444V30.4721H111.995L115.165 34.9999H122.137L117.712 28.6869ZM111.665 24.884H106.444V17.0509H111.502C114.148 17.0509 116.263 18.901 116.263 20.9512C116.257 23.0339 114.31 24.884 111.665 24.884Z" fill="white"/>
<path opacity="0.75" d="M169.531 11.4683H176.672L181.892 18.5386L187.145 11.4683H194.247L185.457 23.2016L194.312 34.9945H187.177L181.892 27.8593L176.601 34.9945H169.466L178.322 23.2016L169.531 11.4683Z" fill="white"/>
<path d="M148.547 11.4683H167.746V17.051H154.227V20.3887H163.878V25.9064H154.227V29.3794H167.746V34.9945H148.547V11.4683Z" fill="white"/>
<path d="M123.76 11.4683H145.502V17.0834H137.506V34.9945H131.821V17.0834H123.76V11.4683Z" fill="white"/>
<path d="M77.99 11.4683H97.1886V17.051H83.6755V20.3887H93.3207V25.9064H83.6755V29.3794H97.1886V34.9945H77.99V11.4683Z" fill="white"/>
<path d="M56.3733 11.4683L62.9838 27.6267L69.5943 11.4683H75.8045L66.0889 34.9945H59.8787L50.1631 11.4683H56.3733Z" fill="white"/>
<path d="M38.527 11.4683H28.3516V34.9945H38.527C45.0023 34.9945 50.255 29.7094 50.255 23.2666C50.2604 16.7534 45.0077 11.4683 38.527 11.4683ZM38.7921 29.3794H34.0316V17.0888H38.7921C42.0324 17.0888 44.5424 19.8639 44.5424 23.2666C44.5424 26.6043 42.0324 29.3794 38.7921 29.3794Z" fill="white"/>
<path d="M15.6932 11.4683H10.408L0 34.9945H6.21021L7.23262 32.5494H18.8308L19.9559 34.9945H26.1662L15.6932 11.4683ZM9.51005 27.1669L13.0479 18.4412L16.6182 27.1669H9.51005Z" fill="white"/>
<g opacity="0.75">
<path opacity="0.75" d="M225.336 18.8577L209.086 34.9945H215.247L228.669 21.9195L232.077 25.0517L235.701 12.5015L221.934 15.731L225.336 18.8577Z" fill="white"/>
</g>
<path opacity="0.75" d="M212.261 13.2751L196.509 16.9699L200.403 20.551L198.223 22.5796V29.6391L204.217 24.0564L208.112 27.6376L212.261 13.2751Z" fill="white"/>
<path d="M233.05 11.49L233.883 11.2952L237.145 0L212.656 5.73957L218.715 11.306L212.196 17.738L208.691 30.0124L204.369 26.0525L198.223 31.7326V34.9946H205.759L222.783 18.4845L218.807 14.8277L233.05 11.49Z" fill="white"/>
</svg>
